<svg version="1.1" id="Layer_1" xmlns="http://www.w3.org/2000/svg" xmlns:xlink="http://www.w3.org/1999/xlink" x="0px" y="0px"
	 width="100%" viewBox="0 0 657 380" enable-background="new 0 0 657 380" xml:space="preserve">
<path fill="#C1B4A4" opacity="1.000000" stroke="none" 
	d="
M637.000000,381.000000 
	C432.306458,381.000000 227.612946,381.000000 22.540150,380.643311 
	C25.273096,372.230774 28.328913,364.152649 31.508432,356.123505 
	C39.950394,334.805237 48.141991,313.380981 56.996704,292.234833 
	C68.092232,265.737366 79.768440,239.483307 91.152481,213.106262 
	C94.529480,205.281677 94.471504,205.032822 103.199303,205.274765 
	C115.500893,205.615768 127.789963,206.392227 140.090118,206.816284 
	C142.502670,206.899445 145.227509,206.802353 147.302872,205.771133 
	C150.672836,204.096649 152.223129,200.832596 151.508789,196.989410 
	C150.772430,193.027664 148.314606,190.172256 144.270111,189.839706 
	C133.002731,188.913239 121.706261,188.335236 110.418442,187.667679 
	C108.357430,187.545776 106.283035,187.650284 103.256279,187.650284 
	C106.755630,180.911926 109.941948,175.295456 112.605598,169.441177 
	C114.067398,166.228378 115.709732,165.271744 119.103027,166.375214 
	C127.929558,169.245529 136.847504,171.833450 145.708145,174.600739 
	C150.395630,176.064682 153.925537,174.410568 156.441971,170.544601 
	C158.722595,167.040863 158.629639,163.113968 155.209320,160.707611 
	C151.516129,158.109283 147.237518,156.143219 142.957291,154.626633 
	C136.756821,152.429672 130.325470,150.884247 123.541626,148.931046 
	C127.551323,141.212570 131.075073,133.709244 135.226990,126.571297 
	C148.090500,104.456352 160.768875,82.213638 174.385757,60.565651 
	C180.965347,50.105446 188.530090,39.887295 197.339905,31.293114 
	C211.737259,17.248177 232.198837,18.660122 246.441177,32.932865 
	C257.959808,44.476093 266.066284,58.372688 274.333679,72.220695 
	C278.822266,79.739136 284.011902,86.839050 288.836670,94.585083 
	C288.796661,102.172142 288.661804,109.305794 288.856873,116.430420 
	C289.029572,122.737083 294.808533,127.992653 300.965393,127.810966 
	C306.777893,127.639435 310.824341,123.074387 310.904144,116.385170 
	C310.989166,109.256294 310.929382,102.125679 311.365540,94.899948 
	C313.854492,94.890526 315.910736,94.976990 317.948425,95.526840 
	C317.926544,102.489975 317.872437,108.990196 317.933319,115.489334 
	C318.002228,122.848000 322.457336,127.771278 328.933411,127.785225 
	C335.420685,127.799194 339.849426,122.988075 339.974579,115.517952 
	C340.089020,108.686943 339.987488,101.852310 340.412537,94.923210 
	C342.896790,94.899590 344.949615,94.972038 346.995544,95.509193 
	C346.994385,102.613983 346.853088,109.258354 347.047058,115.892937 
	C347.242706,122.585983 352.374115,127.664726 358.700226,127.816895 
	C364.578369,127.958290 369.026917,123.355156 369.192627,116.326210 
	C369.360504,109.205498 369.041687,102.073318 369.130554,94.671585 
	C374.491211,86.949959 380.082825,79.757805 384.730469,72.000130 
	C393.098236,58.032928 401.185333,43.896973 413.007812,32.462624 
	C427.278137,18.660891 446.196228,17.792538 461.129791,30.692123 
	C466.718262,35.519424 471.939209,41.194374 475.914459,47.389687 
	C489.010223,67.799118 501.698639,88.481590 514.068298,109.340996 
	C521.655151,122.135063 528.373230,135.444336 535.758240,149.031616 
	C532.853821,149.778656 530.771973,150.210876 528.756165,150.851151 
	C521.483521,153.161133 514.128662,155.267792 507.009430,157.986725 
	C501.900238,159.938004 499.943451,165.494247 502.092316,169.912857 
	C504.380524,174.617889 509.149170,175.900253 514.349060,174.143829 
	C523.148254,171.171661 532.106689,168.658112 541.055481,166.157028 
	C542.190491,165.839798 544.406067,166.341370 544.874207,167.168900 
	C548.514893,173.604370 551.849792,180.212830 555.740234,187.648911 
	C552.155212,187.648911 549.707520,187.523621 547.276245,187.670502 
	C536.492676,188.321976 525.693542,188.836670 514.941956,189.846207 
	C509.795807,190.329391 506.970551,194.396423 507.417023,199.236847 
	C507.856720,204.003738 511.495392,207.103500 516.705688,207.010712 
	C518.697266,206.975250 520.680664,206.587326 522.673645,206.509659 
	C534.471130,206.049942 546.268127,205.544083 558.070190,205.257492 
	C561.702026,205.169312 564.820129,205.706619 566.675659,210.103668 
	C573.774109,226.924545 581.812744,243.355240 588.695190,260.259399 
	C605.041077,300.406769 620.927795,340.741180 637.000000,381.000000 
M356.887268,198.392975 
	C358.826111,195.672775 360.775238,192.959824 362.701416,190.230682 
	C365.527008,186.227249 368.726562,182.422806 371.036530,178.139694 
	C373.114807,174.286285 371.517883,170.652588 368.000214,168.188019 
	C364.279388,165.581055 359.572266,165.922714 356.576355,169.069138 
	C355.361115,170.345413 355.107544,172.703293 353.767426,173.658936 
	C351.244781,175.457840 348.207275,177.734573 345.467743,177.629272 
	C343.471375,177.552521 341.044312,174.252472 339.859497,171.867615 
	C338.835693,169.806763 339.201843,167.013885 339.111694,164.538864 
	C338.885498,158.325912 335.719971,154.488861 330.561462,154.316345 
	C325.491180,154.146774 321.630585,157.987534 321.105347,163.907196 
	C320.870575,166.553024 321.160767,169.258438 320.787781,171.876266 
	C320.021149,177.256729 315.047852,179.842026 310.466034,176.955353 
	C308.248383,175.558182 306.594635,173.053879 305.089691,170.783020 
	C302.194366,166.414169 297.822021,164.708786 293.609100,166.676376 
	C289.089661,168.787125 287.053711,172.943558 288.977753,177.857712 
	C290.278137,181.179047 291.965729,185.247650 294.728882,186.925293 
	C302.364838,191.561523 304.099609,199.252029 307.298645,206.513977 
	C314.969177,223.926544 334.869843,228.850082 346.595764,216.081009 
	C350.939453,211.350937 353.321350,204.819382 356.887268,198.392975 
M216.842255,196.450531 
	C218.301468,198.252106 219.609375,200.206360 221.246323,201.828583 
	C228.024246,208.545532 240.469757,209.116791 248.922714,203.212860 
	C256.554657,197.882385 260.071320,185.593567 256.135223,177.274918 
	C249.809372,163.905609 237.944427,161.144150 227.170914,165.262146 
	C215.263367,169.813629 210.756149,183.698502 216.842255,196.450531 
M418.338013,206.634277 
	C420.818604,206.810715 423.305573,207.199463 425.778595,207.124878 
	C434.092407,206.874207 440.054474,202.309174 443.592163,195.356857 
	C447.242462,188.183167 446.930939,180.517960 442.319061,173.554291 
	C436.600647,164.919830 426.928253,161.630341 416.960205,164.708374 
	C408.777557,167.235092 402.251984,175.901016 402.025055,184.542130 
	C401.757843,194.718796 407.612518,202.967896 418.338013,206.634277 
z"/>
<path fill="#000000" opacity="1.000000" stroke="none" 
	d="
M2.999999,381.000000 
	C2.333331,380.666656 1.216348,380.451996 1.090950,379.976044 
	C0.803541,378.885101 1.000000,377.666656 1.000000,376.500000 
	C1.000000,251.333328 1.000000,126.166664 1.000000,1.000000 
	C220.000000,1.000000 439.000000,1.000000 658.000000,1.000000 
	C658.000000,126.166664 658.003479,251.333328 657.958557,376.500000 
	C657.958008,378.000092 657.333313,379.500000 656.362793,380.663452 
	C632.683472,323.112122 609.641357,265.897339 586.354004,208.073608 
	C595.465942,210.405014 604.062683,212.721817 612.722412,214.772690 
	C617.310486,215.859283 621.605103,213.392899 623.250244,209.212860 
	C624.621155,205.729355 622.555115,201.087448 618.565186,198.866409 
	C617.268982,198.144882 615.924133,197.370316 614.503601,197.035507 
	C605.384766,194.886292 596.315674,192.344482 587.076782,190.944107 
	C579.881470,189.853485 573.568604,188.730606 571.695068,180.297882 
	C571.317566,178.598938 569.862732,177.164429 569.070679,175.527664 
	C567.035950,171.322830 565.094482,167.072876 562.732239,162.020889 
	C575.346741,161.275772 586.904297,160.623093 598.456909,159.893021 
	C602.096069,159.663055 605.815552,159.603653 609.318481,158.738358 
	C611.348511,158.236893 613.666138,156.678879 614.737793,154.917099 
	C618.639771,148.502838 614.521912,141.448181 606.539734,141.122574 
	C601.113770,140.901245 595.643433,141.615936 590.200073,142.010941 
	C580.454468,142.718124 570.659851,143.088974 560.987915,144.371307 
	C552.120300,145.547028 554.041443,146.375397 549.842896,138.714691 
	C539.830994,120.446754 529.866943,102.148758 519.544922,84.056122 
	C513.492432,73.447304 506.711395,63.256760 500.399902,52.792542 
	C491.821045,38.569160 482.461121,25.102182 469.197632,14.624943 
	C452.633698,1.540565 427.154114,0.612482 409.408813,12.888364 
	C397.775635,20.936001 389.642334,31.913271 381.997864,43.314381 
	C375.571899,52.898251 370.083344,63.106480 363.900787,72.861473 
	C362.747955,74.680397 360.290802,76.820953 358.405334,76.850037 
	C339.080872,77.148048 319.749786,77.092606 300.421997,76.945946 
	C298.914978,76.934509 296.808746,75.883095 296.021027,74.650429 
	C292.191528,68.657951 288.767700,62.408245 285.106171,56.306049 
	C274.802856,39.134800 264.443695,21.927795 246.640549,11.240927 
	C238.141724,6.139260 228.503662,3.723522 218.720352,3.852573 
	C200.100082,4.098192 186.219055,14.523774 175.689163,28.378927 
	C164.240219,43.443348 154.250153,59.700783 144.552612,75.990860 
	C132.206207,96.730553 120.726608,117.988899 109.013023,139.101166 
	C105.169144,146.029297 104.934669,146.311081 96.997177,144.654755 
	C95.228752,144.285751 93.396790,144.198563 91.588615,144.046692 
	C83.901840,143.401138 76.216415,142.734161 68.523842,142.164810 
	C62.580482,141.724930 56.621944,141.074173 50.680111,141.165451 
	C46.191814,141.234436 43.266575,145.192917 43.050144,149.966583 
	C42.839371,154.615585 44.781384,157.862137 49.372940,158.754181 
	C53.090630,159.476456 56.945473,159.526215 60.745590,159.784454 
	C72.268394,160.567474 83.794151,161.306900 96.495995,162.140564 
	C91.959717,171.061905 87.939888,179.122467 83.711723,187.072205 
	C83.224411,187.988434 81.636093,188.594742 80.457603,188.821381 
	C74.448700,189.976898 68.307350,190.575439 62.401058,192.099960 
	C54.763454,194.071381 47.138004,196.319977 39.830532,199.254166 
	C35.435249,201.018997 35.346397,205.794800 36.395473,209.734650 
	C37.393803,213.483902 40.688049,215.198898 44.554359,214.926971 
	C46.998112,214.755096 49.417763,214.049622 51.815659,213.452667 
	C58.803017,211.713181 65.774002,209.907928 73.568787,207.920013 
	C73.025627,209.903610 72.858269,210.985382 72.443314,211.961945 
	C58.926029,243.773315 45.117996,275.464417 31.934109,307.413116 
	C21.881506,331.773773 12.615783,356.459106 2.999999,381.000000 
z"/>
<path fill="#58310A" opacity="1.000000" stroke="none" 
	d="
M3.468272,381.000000 
	C12.615783,356.459106 21.881506,331.773773 31.934109,307.413116 
	C45.117996,275.464417 58.926029,243.773315 72.443314,211.961945 
	C72.858269,210.985382 73.025627,209.903610 73.568787,207.920013 
	C65.774002,209.907928 58.803017,211.713181 51.815659,213.452667 
	C49.417763,214.049622 46.998112,214.755096 44.554359,214.926971 
	C40.688049,215.198898 37.393803,213.483902 36.395473,209.734650 
	C35.346397,205.794800 35.435249,201.018997 39.830532,199.254166 
	C47.138004,196.319977 54.763454,194.071381 62.401058,192.099960 
	C68.307350,190.575439 74.448700,189.976898 80.457603,188.821381 
	C81.636093,188.594742 83.224411,187.988434 83.711723,187.072205 
	C87.939888,179.122467 91.959717,171.061905 96.495995,162.140564 
	C83.794151,161.306900 72.268394,160.567474 60.745590,159.784454 
	C56.945473,159.526215 53.090630,159.476456 49.372940,158.754181 
	C44.781384,157.862137 42.839371,154.615585 43.050144,149.966583 
	C43.266575,145.192917 46.191814,141.234436 50.680111,141.165451 
	C56.621944,141.074173 62.580482,141.724930 68.523842,142.164810 
	C76.216415,142.734161 83.901840,143.401138 91.588615,144.046692 
	C93.396790,144.198563 95.228752,144.285751 96.997177,144.654755 
	C104.934669,146.311081 105.169144,146.029297 109.013023,139.101166 
	C120.726608,117.988899 132.206207,96.730553 144.552612,75.990860 
	C154.250153,59.700783 164.240219,43.443348 175.689163,28.378927 
	C186.219055,14.523774 200.100082,4.098192 218.720352,3.852573 
	C228.503662,3.723522 238.141724,6.139260 246.640549,11.240927 
	C264.443695,21.927795 274.802856,39.134800 285.106171,56.306049 
	C288.767700,62.408245 292.191528,68.657951 296.021027,74.650429 
	C296.808746,75.883095 298.914978,76.934509 300.421997,76.945946 
	C319.749786,77.092606 339.080872,77.148048 358.405334,76.850037 
	C360.290802,76.820953 362.747955,74.680397 363.900787,72.861473 
	C370.083344,63.106480 375.571899,52.898251 381.997864,43.314381 
	C389.642334,31.913271 397.775635,20.936001 409.408813,12.888364 
	C427.154114,0.612482 452.633698,1.540565 469.197632,14.624943 
	C482.461121,25.102182 491.821045,38.569160 500.399902,52.792542 
	C506.711395,63.256760 513.492432,73.447304 519.544922,84.056122 
	C529.866943,102.148758 539.830994,120.446754 549.842896,138.714691 
	C554.041443,146.375397 552.120300,145.547028 560.987915,144.371307 
	C570.659851,143.088974 580.454468,142.718124 590.200073,142.010941 
	C595.643433,141.615936 601.113770,140.901245 606.539734,141.122574 
	C614.521912,141.448181 618.639771,148.502838 614.737793,154.917099 
	C613.666138,156.678879 611.348511,158.236893 609.318481,158.738358 
	C605.815552,159.603653 602.096069,159.663055 598.456909,159.893021 
	C586.904297,160.623093 575.346741,161.275772 562.732239,162.020889 
	C565.094482,167.072876 567.035950,171.322830 569.070679,175.527664 
	C569.862732,177.164429 571.317566,178.598938 571.695068,180.297882 
	C573.568604,188.730606 579.881470,189.853485 587.076782,190.944107 
	C596.315674,192.344482 605.384766,194.886292 614.503601,197.035507 
	C615.924133,197.370316 617.268982,198.144882 618.565186,198.866409 
	C622.555115,201.087448 624.621155,205.729355 623.250244,209.212860 
	C621.605103,213.392899 617.310486,215.859283 612.722412,214.772690 
	C604.062683,212.721817 595.465942,210.405014 586.354004,208.073608 
	C609.641357,265.897339 632.683472,323.112122 655.862793,380.663452 
	C649.978821,381.000000 643.957703,381.000000 637.468262,381.000000 
	C620.927795,340.741180 605.041077,300.406769 588.695190,260.259399 
	C581.812744,243.355240 573.774109,226.924545 566.675659,210.103668 
	C564.820129,205.706619 561.702026,205.169312 558.070190,205.257492 
	C546.268127,205.544083 534.471130,206.049942 522.673645,206.509659 
	C520.680664,206.587326 518.697266,206.975250 516.705688,207.010712 
	C511.495392,207.103500 507.856720,204.003738 507.417023,199.236847 
	C506.970551,194.396423 509.795807,190.329391 514.941956,189.846207 
	C525.693542,188.836670 536.492676,188.321976 547.276245,187.670502 
	C549.707520,187.523621 552.155212,187.648911 555.740234,187.648911 
	C551.849792,180.212830 548.514893,173.604370 544.874207,167.168900 
	C544.406067,166.341370 542.190491,165.839798 541.055481,166.157028 
	C532.106689,168.658112 523.148254,171.171661 514.349060,174.143829 
	C509.149170,175.900253 504.380524,174.617889 502.092316,169.912857 
	C499.943451,165.494247 501.900238,159.938004 507.009430,157.986725 
	C514.128662,155.267792 521.483521,153.161133 528.756165,150.851151 
	C530.771973,150.210876 532.853821,149.778656 535.758240,149.031616 
	C528.373230,135.444336 521.655151,122.135063 514.068298,109.340996 
	C501.698639,88.481590 489.010223,67.799118 475.914459,47.389687 
	C471.939209,41.194374 466.718262,35.519424 461.129791,30.692123 
	C446.196228,17.792538 427.278137,18.660891 413.007812,32.462624 
	C401.185333,43.896973 393.098236,58.032928 384.730469,72.000130 
	C380.082825,79.757805 374.491211,86.949959 368.667023,94.642700 
	C361.006836,94.940430 354.004639,94.992455 347.002472,95.044487 
	C344.949615,94.972038 342.896790,94.899590 339.946960,94.892578 
	C332.022308,94.993164 324.994629,95.028313 317.966949,95.063454 
	C315.910736,94.976990 313.854492,94.890526 310.903503,94.873764 
	C302.967621,94.671570 295.926453,94.399666 288.885315,94.127754 
	C284.011902,86.839050 278.822266,79.739136 274.333679,72.220695 
	C266.066284,58.372688 257.959808,44.476093 246.441177,32.932865 
	C232.198837,18.660122 211.737259,17.248177 197.339905,31.293114 
	C188.530090,39.887295 180.965347,50.105446 174.385757,60.565651 
	C160.768875,82.213638 148.090500,104.456352 135.226990,126.571297 
	C131.075073,133.709244 127.551323,141.212570 123.541626,148.931046 
	C130.325470,150.884247 136.756821,152.429672 142.957291,154.626633 
	C147.237518,156.143219 151.516129,158.109283 155.209320,160.707611 
	C158.629639,163.113968 158.722595,167.040863 156.441971,170.544601 
	C153.925537,174.410568 150.395630,176.064682 145.708145,174.600739 
	C136.847504,171.833450 127.929558,169.245529 119.103027,166.375214 
	C115.709732,165.271744 114.067398,166.228378 112.605598,169.441177 
	C109.941948,175.295456 106.755630,180.911926 103.256279,187.650284 
	C106.283035,187.650284 108.357430,187.545776 110.418442,187.667679 
	C121.706261,188.335236 133.002731,188.913239 144.270111,189.839706 
	C148.314606,190.172256 150.772430,193.027664 151.508789,196.989410 
	C152.223129,200.832596 150.672836,204.096649 147.302872,205.771133 
	C145.227509,206.802353 142.502670,206.899445 140.090118,206.816284 
	C127.789963,206.392227 115.500893,205.615768 103.199303,205.274765 
	C94.471504,205.032822 94.529480,205.281677 91.152481,213.106262 
	C79.768440,239.483307 68.092232,265.737366 56.996704,292.234833 
	C48.141991,313.380981 39.950394,334.805237 31.508432,356.123505 
	C28.328913,364.152649 25.273096,372.230774 22.080444,380.643311 
	C15.978848,381.000000 9.957696,381.000000 3.468272,381.000000 
z"/>
<path fill="#59310A" opacity="1.000000" stroke="none" 
	d="
M356.742615,198.751190 
	C353.321350,204.819382 350.939453,211.350937 346.595764,216.081009 
	C334.869843,228.850082 314.969177,223.926544 307.298645,206.513977 
	C304.099609,199.252029 302.364838,191.561523 294.728882,186.925293 
	C291.965729,185.247650 290.278137,181.179047 288.977753,177.857712 
	C287.053711,172.943558 289.089661,168.787125 293.609100,166.676376 
	C297.822021,164.708786 302.194366,166.414169 305.089691,170.783020 
	C306.594635,173.053879 308.248383,175.558182 310.466034,176.955353 
	C315.047852,179.842026 320.021149,177.256729 320.787781,171.876266 
	C321.160767,169.258438 320.870575,166.553024 321.105347,163.907196 
	C321.630585,157.987534 325.491180,154.146774 330.561462,154.316345 
	C335.719971,154.488861 338.885498,158.325912 339.111694,164.538864 
	C339.201843,167.013885 338.835693,169.806763 339.859497,171.867615 
	C341.044312,174.252472 343.471375,177.552521 345.467743,177.629272 
	C348.207275,177.734573 351.244781,175.457840 353.767426,173.658936 
	C355.107544,172.703293 355.361115,170.345413 356.576355,169.069138 
	C359.572266,165.922714 364.279388,165.581055 368.000214,168.188019 
	C371.517883,170.652588 373.114807,174.286285 371.036530,178.139694 
	C368.726562,182.422806 365.527008,186.227249 362.701416,190.230682 
	C360.775238,192.959824 358.826111,195.672775 356.742615,198.751190 
M327.334412,192.005264 
	C325.476074,192.967255 323.617737,193.929245 321.562103,194.993378 
	C323.645294,199.551773 324.744873,205.179382 330.247894,205.187897 
	C335.905426,205.196655 337.283875,199.624390 339.266418,195.221481 
	C336.406586,193.557083 333.934082,191.894623 331.254578,190.694244 
	C330.446442,190.332214 329.063599,191.253143 327.334412,192.005264 
z"/>
<path fill="#593109" opacity="1.000000" stroke="none" 
	d="
M216.621460,196.145233 
	C210.756149,183.698502 215.263367,169.813629 227.170914,165.262146 
	C237.944427,161.144150 249.809372,163.905609 256.135223,177.274918 
	C260.071320,185.593567 256.554657,197.882385 248.922714,203.212860 
	C240.469757,209.116791 228.024246,208.545532 221.246323,201.828583 
	C219.609375,200.206360 218.301468,198.252106 216.621460,196.145233 
z"/>
<path fill="#593008" opacity="1.000000" stroke="none" 
	d="
M417.935974,206.514008 
	C407.612518,202.967896 401.757843,194.718796 402.025055,184.542130 
	C402.251984,175.901016 408.777557,167.235092 416.960205,164.708374 
	C426.928253,161.630341 436.600647,164.919830 442.319061,173.554291 
	C446.930939,180.517960 447.242462,188.183167 443.592163,195.356857 
	C440.054474,202.309174 434.092407,206.874207 425.778595,207.124878 
	C423.305573,207.199463 420.818604,206.810715 417.935974,206.514008 
z"/>
<path fill="#6A5C59" opacity="1.000000" stroke="none" 
	d="
M288.836670,94.585083 
	C295.926453,94.399666 302.967621,94.671570 310.470795,94.969650 
	C310.929382,102.125679 310.989166,109.256294 310.904144,116.385170 
	C310.824341,123.074387 306.777893,127.639435 300.965393,127.810966 
	C294.808533,127.992653 289.029572,122.737083 288.856873,116.430420 
	C288.661804,109.305794 288.796661,102.172142 288.836670,94.585083 
z"/>
<path fill="#6A5B59" opacity="1.000000" stroke="none" 
	d="
M346.995544,95.509193 
	C354.004639,94.992455 361.006836,94.940430 368.472534,94.917282 
	C369.041687,102.073318 369.360504,109.205498 369.192627,116.326210 
	C369.026917,123.355156 364.578369,127.958290 358.700226,127.816895 
	C352.374115,127.664726 347.242706,122.585983 347.047058,115.892937 
	C346.853088,109.258354 346.994385,102.613983 346.995544,95.509193 
z"/>
<path fill="#6A5B59" opacity="1.000000" stroke="none" 
	d="
M317.948425,95.526840 
	C324.994629,95.028313 332.022308,94.993164 339.515564,94.988647 
	C339.987488,101.852310 340.089020,108.686943 339.974579,115.517952 
	C339.849426,122.988075 335.420685,127.799194 328.933411,127.785225 
	C322.457336,127.771278 318.002228,122.848000 317.933319,115.489334 
	C317.872437,108.990196 317.926544,102.489975 317.948425,95.526840 
z"/>
<path fill="#F2B8BE" opacity="1.000000" stroke="none" 
	d="
M327.639221,191.795822 
	C329.063599,191.253143 330.446442,190.332214 331.254578,190.694244 
	C333.934082,191.894623 336.406586,193.557083 339.266418,195.221481 
	C337.283875,199.624390 335.905426,205.196655 330.247894,205.187897 
	C324.744873,205.179382 323.645294,199.551773 321.562103,194.993378 
	C323.617737,193.929245 325.476074,192.967255 327.639221,191.795822 
z"/>
</svg>